<svg width="28" height="28" viewBox="0 0 28 28" fill="none" xmlns="http://www.w3.org/2000/svg">
<path d="M23.22 10.0172C23.1647 9.89054 23.0873 9.77479 22.9913 9.67533L15.9913 2.67533C15.8919 2.57941 15.7761 2.50198 15.6495 2.44666C15.6145 2.43033 15.5772 2.421 15.5398 2.40816C15.4422 2.37494 15.3406 2.35493 15.2377 2.34866C15.2132 2.34633 15.191 2.3335 15.1665 2.3335H6.99984C5.713 2.3335 4.6665 3.38 4.6665 4.66683V23.3335C4.6665 24.6203 5.713 25.6668 6.99984 25.6668H20.9998C22.2867 25.6668 23.3332 24.6203 23.3332 23.3335V10.5002C23.3332 10.4757 23.3203 10.4535 23.318 10.4278C23.3123 10.3248 23.2923 10.2231 23.2585 10.1257C23.2468 10.0883 23.2363 10.0522 23.22 10.0172ZM19.3502 9.3335H16.3332V6.3165L19.3502 9.3335ZM6.99984 23.3335V4.66683H13.9998V10.5002C13.9998 10.8096 14.1228 11.1063 14.3415 11.3251C14.5603 11.5439 14.8571 11.6668 15.1665 11.6668H20.9998L21.0022 23.3335H6.99984Z" fill="black"/>
<path d="M9.3335 14.0002H18.6668V16.3335H9.3335V14.0002ZM9.3335 18.6668H18.6668V21.0002H9.3335V18.6668ZM9.3335 9.3335H11.6668V11.6668H9.3335V9.3335Z" fill="black"/>
</svg>
