<svg width="36" height="36" viewBox="0 0 36 36" fill="none" xmlns="http://www.w3.org/2000/svg">
<path d="M19.3259 3.79825C18.8069 2.81725 17.1929 2.81725 16.6739 3.79825L3.17394 29.2982C3.05241 29.5268 2.99217 29.7829 2.99907 30.0417C3.00597 30.3005 3.07978 30.553 3.21332 30.7748C3.34685 30.9965 3.53555 31.1799 3.76103 31.3071C3.98651 31.4342 4.24108 31.5008 4.49994 31.5002H31.4999C31.7586 31.5008 32.013 31.4343 32.2383 31.3072C32.4637 31.1802 32.6522 30.9969 32.7856 30.7753C32.919 30.5536 32.9927 30.3012 32.9995 30.0426C33.0063 29.784 32.946 29.5281 32.8244 29.2998L19.3259 3.79825ZM19.4999 27.0002H16.4999V24.0002H19.4999V27.0002ZM16.4999 21.0002V13.5002H19.4999L19.5014 21.0002H16.4999Z" fill="#FF0000"/>
</svg>
