<svg width="35" height="35" viewBox="0 0 35 35" fill="none" xmlns="http://www.w3.org/2000/svg">
<path d="M31.2435 11.248C31.1145 11.0616 30.9422 10.9092 30.7414 10.8039C30.5406 10.6986 30.3172 10.6435 30.0905 10.6435H10.92L9.30128 6.75802C9.08903 6.24635 8.72964 5.80923 8.26865 5.50207C7.80767 5.19492 7.26586 5.03156 6.71192 5.03272H3.43945V7.83809H6.71192L13.3663 23.8077C13.4728 24.0632 13.6527 24.2814 13.883 24.4349C14.1134 24.5884 14.3841 24.6703 14.6609 24.6703H25.8824C26.4673 24.6703 26.9905 24.307 27.1967 23.7614L31.4048 12.5399C31.4843 12.3276 31.5112 12.0991 31.4831 11.8741C31.455 11.6491 31.3728 11.4343 31.2435 11.248Z" fill="#1AE9B7"/>
<path d="M15.3618 30.2813C16.5239 30.2813 17.4659 29.3393 17.4659 28.1773C17.4659 27.0152 16.5239 26.0732 15.3618 26.0732C14.1998 26.0732 13.2578 27.0152 13.2578 28.1773C13.2578 29.3393 14.1998 30.2813 15.3618 30.2813Z" fill="#1AE9B7"/>
<path d="M25.1802 30.2813C26.3422 30.2813 27.2842 29.3393 27.2842 28.1773C27.2842 27.0152 26.3422 26.0732 25.1802 26.0732C24.0182 26.0732 23.0762 27.0152 23.0762 28.1773C23.0762 29.3393 24.0182 30.2813 25.1802 30.2813Z" fill="#1AE9B7"/>
</svg>
