<svg width="62" height="62" viewBox="0 0 62 62" fill="none" xmlns="http://www.w3.org/2000/svg">
<path d="M30.9997 5.16675C23.8774 5.16675 18.083 10.9612 18.083 18.0834V25.8334H15.4997C14.1294 25.8334 12.8152 26.3778 11.8463 27.3467C10.8774 28.3156 10.333 29.6298 10.333 31.0001V51.6668C10.333 53.037 10.8774 54.3512 11.8463 55.3201C12.8152 56.2891 14.1294 56.8334 15.4997 56.8334H46.4997C47.87 56.8334 49.1841 56.2891 50.1531 55.3201C51.122 54.3512 51.6663 53.037 51.6663 51.6668V31.0001C51.6663 29.6298 51.122 28.3156 50.1531 27.3467C49.1841 26.3778 47.87 25.8334 46.4997 25.8334H43.9163V18.0834C43.9163 10.9612 38.1219 5.16675 30.9997 5.16675ZM23.2497 18.0834C23.2497 13.8106 26.7268 10.3334 30.9997 10.3334C35.2725 10.3334 38.7497 13.8106 38.7497 18.0834V25.8334H23.2497V18.0834ZM33.583 45.7845V51.6668H28.4163V45.7845C27.5132 45.2673 26.788 44.4885 26.3363 43.5508C25.8847 42.6132 25.7278 41.5606 25.8864 40.532C26.0451 39.5034 26.5117 38.547 27.2248 37.7889C27.9379 37.0308 28.8641 36.5067 29.8811 36.2856C30.6365 36.1186 31.4198 36.1232 32.1731 36.2992C32.9265 36.4753 33.6308 36.8181 34.234 37.3026C34.8372 37.787 35.3239 38.4007 35.6584 39.0983C35.9928 39.796 36.1664 40.5598 36.1663 41.3334C36.1649 42.2369 35.9253 43.1241 35.4718 43.9055C35.0182 44.6869 34.3668 45.335 33.583 45.7845Z" fill="#797C83"/>
</svg>
