<svg width="32" height="32" viewBox="0 0 32 32" fill="none" xmlns="http://www.w3.org/2000/svg">
<path d="M6.66699 6.66662V25.3333C6.66699 25.6869 6.80747 26.0261 7.05752 26.2761C7.30757 26.5261 7.6467 26.6666 8.00033 26.6666H12.0003V24H9.33366V7.99996H12.0003V5.33329H8.00033C7.6467 5.33329 7.30757 5.47377 7.05752 5.72382C6.80747 5.97386 6.66699 6.313 6.66699 6.66662ZM25.6563 5.37329L14.9897 2.70662C14.7931 2.65761 14.5881 2.65401 14.3899 2.69609C14.1918 2.73818 14.0059 2.82484 13.8463 2.9495C13.6867 3.07416 13.5576 3.23355 13.4687 3.41556C13.3799 3.59757 13.3337 3.79743 13.3337 3.99996V28C13.3332 28.2027 13.379 28.4028 13.4677 28.5851C13.5564 28.7673 13.6855 28.927 13.8453 29.0517C14.005 29.1765 14.1912 29.2631 14.3895 29.305C14.5878 29.3468 14.7931 29.3428 14.9897 29.2933L25.6563 26.6266C25.9449 26.5546 26.2011 26.3883 26.3843 26.1539C26.5674 25.9196 26.6669 25.6307 26.667 25.3333V6.66662C26.6669 6.36921 26.5674 6.08036 26.3843 5.84601C26.2011 5.61166 25.9449 5.44527 25.6563 5.37329ZM20.0003 16.2506C19.985 16.5939 19.8378 16.9181 19.5894 17.1556C19.3411 17.3931 19.0106 17.5256 18.667 17.5256C18.3233 17.5256 17.9929 17.3931 17.7446 17.1556C17.4962 16.9181 17.349 16.5939 17.3337 16.2506V15.748C17.3338 15.3943 17.4745 15.0553 17.7247 14.8053C17.9748 14.5554 18.314 14.4151 18.6677 14.4153C19.0213 14.4155 19.3603 14.5561 19.6103 14.8063C19.8602 15.0565 20.0005 15.3957 20.0003 15.7493V16.2506Z" fill="black"/>
</svg>
