<svg width="32" height="32" viewBox="0 0 32 32" fill="none" xmlns="http://www.w3.org/2000/svg">
<path d="M25.3333 28C26.0406 28 26.7189 27.719 27.219 27.219C27.719 26.7189 28 26.0406 28 25.3333V6.66667C28 5.95942 27.719 5.28115 27.219 4.78105C26.7189 4.28095 26.0406 4 25.3333 4H6.66667C5.95942 4 5.28115 4.28095 4.78105 4.78105C4.28095 5.28115 4 5.95942 4 6.66667V25.3333C4 26.0406 4.28095 26.7189 4.78105 27.219C5.28115 27.719 5.95942 28 6.66667 28H25.3333ZM14.6667 16V9.33333H17.3333V16H22.6667L16 22.6667L9.33333 16H14.6667Z" fill="black"/>
</svg>
