<svg width="33" height="33" viewBox="0 0 33 33" fill="none" xmlns="http://www.w3.org/2000/svg">
<path d="M28.57 15.6617L5.9033 4.99505C5.67505 4.88765 5.42102 4.8472 5.17071 4.8784C4.92039 4.9096 4.68406 5.01116 4.48916 5.1713C4.29426 5.33144 4.14879 5.54358 4.06963 5.78309C3.99047 6.02259 3.98088 6.27964 4.04196 6.52439L5.65796 12.9897L16.002 16.8684L5.65796 20.7471L4.04196 27.2124C3.97973 27.4573 3.98852 27.7149 4.06731 27.955C4.1461 28.1951 4.29164 28.4078 4.48689 28.5682C4.68214 28.7287 4.91904 28.8302 5.16987 28.8609C5.4207 28.8916 5.6751 28.8503 5.9033 28.7417L28.57 18.0751C28.799 17.9674 28.9927 17.7967 29.1284 17.5831C29.264 17.3694 29.3361 17.1215 29.3361 16.8684C29.3361 16.6153 29.264 16.3674 29.1284 16.1537C28.9927 15.94 28.799 15.7694 28.57 15.6617Z" fill="black"/>
</svg>
