<svg width="34" height="35" viewBox="0 0 34 35" fill="none" xmlns="http://www.w3.org/2000/svg">
<path d="M28.8676 7.83843C28.3096 7.83843 27.7744 8.0601 27.3799 8.45468C26.9853 8.84926 26.7636 9.38443 26.7636 9.94246V16.2545H25.3609V7.13708C25.3609 6.57906 25.1392 6.04389 24.7447 5.64931C24.3501 5.25473 23.8149 5.03306 23.2569 5.03306C22.6989 5.03306 22.1637 5.25473 21.7691 5.64931C21.3745 6.04389 21.1529 6.57906 21.1529 7.13708V16.2545H19.7502V5.7344C19.7502 5.17638 19.5285 4.64121 19.1339 4.24663C18.7393 3.85204 18.2042 3.63037 17.6462 3.63037C17.0881 3.63037 16.553 3.85204 16.1584 4.24663C15.7638 4.64121 15.5421 5.17638 15.5421 5.7344V16.2545H14.1394V8.53977C14.1394 7.98175 13.9178 7.44658 13.5232 7.052C13.1286 6.65742 12.5934 6.43574 12.0354 6.43574C11.4774 6.43574 10.9422 6.65742 10.5476 7.052C10.1531 7.44658 9.93138 7.98175 9.93138 8.53977V23.7028L6.81742 18.6531C6.52353 18.177 6.05251 17.837 5.50799 17.7081C4.96346 17.5792 4.39004 17.6719 3.91386 17.9658C3.43768 18.2597 3.09775 18.7307 2.96885 19.2752C2.83996 19.8198 2.93265 20.3932 3.22654 20.8694L7.86943 28.3597C8.49776 29.3756 9.37516 30.2143 10.4184 30.796C11.4617 31.3778 12.6363 31.6835 13.8308 31.6841H23.9582C25.8183 31.6841 27.6022 30.9452 28.9175 29.6299C30.2327 28.3146 30.9717 26.5307 30.9717 24.6707V9.94246C30.9717 9.38443 30.75 8.84926 30.3554 8.45468C29.9608 8.0601 29.4257 7.83843 28.8676 7.83843Z" fill="#1AE9B7"/>
</svg>
