<svg width="32" height="32" viewBox="0 0 32 32" fill="none" xmlns="http://www.w3.org/2000/svg">
<path d="M26.6667 2.66675H13.3334C12.6262 2.66675 11.9479 2.9477 11.4478 3.4478C10.9477 3.94789 10.6667 4.62617 10.6667 5.33341V8.00008H21.3334C22.0407 8.00008 22.7189 8.28103 23.219 8.78113C23.7191 9.28123 24.0001 9.9595 24.0001 10.6667V21.3334H26.6667C27.374 21.3334 28.0523 21.0525 28.5524 20.5524C29.0525 20.0523 29.3334 19.374 29.3334 18.6667V5.33341C29.3334 4.62617 29.0525 3.94789 28.5524 3.4478C28.0523 2.9477 27.374 2.66675 26.6667 2.66675Z" fill="white"/>
<path d="M5.33341 29.3334H18.6667C20.1374 29.3334 21.3334 28.1374 21.3334 26.6667V13.3334C21.3334 11.8627 20.1374 10.6667 18.6667 10.6667H5.33341C3.86275 10.6667 2.66675 11.8627 2.66675 13.3334V26.6667C2.66675 28.1374 3.86275 29.3334 5.33341 29.3334ZM8.00008 16.0001H16.0001V18.6667H8.00008V16.0001ZM8.00008 21.3334H16.0001V24.0001H8.00008V21.3334Z" fill="white"/>
</svg>
