<svg width="107" height="41" viewBox="0 0 107 41" fill="none" xmlns="http://www.w3.org/2000/svg">
<rect width="106.118" height="33.7647" rx="7.23529" fill="black"/>
<path d="M17.1325 14.9276H15.5292C15.4676 14.585 15.3528 14.2836 15.1849 14.0232C15.0171 13.7628 14.8115 13.5419 14.5683 13.3603C14.325 13.1787 14.0527 13.0417 13.7512 12.9492C13.4532 12.8567 13.1363 12.8105 12.8006 12.8105C12.1942 12.8105 11.6512 12.9629 11.1716 13.2678C10.6954 13.5727 10.3186 14.0198 10.0411 14.609C9.76702 15.1982 9.62999 15.9177 9.62999 16.7673C9.62999 17.6237 9.76702 18.3466 10.0411 18.9358C10.3186 19.525 10.6971 19.9704 11.1767 20.2719C11.6563 20.5733 12.1959 20.7241 12.7954 20.7241C13.1277 20.7241 13.4429 20.6795 13.7409 20.5905C14.0424 20.498 14.3148 20.3626 14.558 20.1845C14.8012 20.0064 15.0068 19.7888 15.1746 19.5319C15.3459 19.2715 15.4641 18.9735 15.5292 18.6378L17.1325 18.6429C17.0468 19.1602 16.8807 19.6364 16.634 20.0715C16.3908 20.5031 16.0773 20.8765 15.6937 21.1917C15.3134 21.5034 14.8783 21.745 14.3884 21.9162C13.8985 22.0875 13.3641 22.1732 12.7852 22.1732C11.8739 22.1732 11.062 21.9574 10.3494 21.5257C9.63684 21.0906 9.07501 20.4688 8.66391 19.6604C8.25624 18.8519 8.05241 17.8875 8.05241 16.7673C8.05241 15.6436 8.25795 14.6792 8.66905 13.8742C9.08015 13.0657 9.64198 12.4456 10.3545 12.014C11.0671 11.5789 11.8773 11.3613 12.7852 11.3613C13.3436 11.3613 13.8643 11.4419 14.3473 11.6029C14.8338 11.7605 15.2706 11.9934 15.6577 12.3017C16.0448 12.6066 16.3651 12.98 16.6186 13.422C16.8721 13.8605 17.0434 14.3624 17.1325 14.9276ZM20.4457 11.5052V22.0293H18.9092V11.5052H20.4457ZM22.5127 22.0293V14.1362H24.0492V22.0293H22.5127ZM23.2887 12.9184C23.0214 12.9184 22.7919 12.8293 22.6001 12.6512C22.4117 12.4696 22.3174 12.2538 22.3174 12.0037C22.3174 11.7502 22.4117 11.5344 22.6001 11.3562C22.7919 11.1746 23.0214 11.0839 23.2887 11.0839C23.5559 11.0839 23.7837 11.1746 23.9721 11.3562C24.164 11.5344 24.2599 11.7502 24.2599 12.0037C24.2599 12.2538 24.164 12.4696 23.9721 12.6512C23.7837 12.8293 23.5559 12.9184 23.2887 12.9184ZM29.441 22.1886C28.677 22.1886 28.0193 22.0156 27.4677 21.6696C26.9196 21.3202 26.4982 20.8388 26.2036 20.2256C25.909 19.6124 25.7617 18.9101 25.7617 18.1187C25.7617 17.3171 25.9124 16.6097 26.2139 15.9965C26.5153 15.3798 26.9401 14.8985 27.4883 14.5525C28.0364 14.2065 28.6822 14.0335 29.4256 14.0335C30.0251 14.0335 30.5595 14.1448 31.0288 14.3675C31.4982 14.5867 31.8767 14.8951 32.1645 15.2925C32.4557 15.6898 32.6287 16.154 32.6835 16.685H31.1881C31.1059 16.3151 30.9175 15.9965 30.6229 15.7292C30.3317 15.462 29.9411 15.3284 29.4512 15.3284C29.023 15.3284 28.6479 15.4415 28.3259 15.6676C28.0073 15.8903 27.7589 16.2089 27.5808 16.6234C27.4026 17.0345 27.3135 17.5209 27.3135 18.0828C27.3135 18.6583 27.4009 19.155 27.5756 19.573C27.7503 19.9909 27.997 20.3147 28.3156 20.5442C28.6376 20.7737 29.0162 20.8885 29.4512 20.8885C29.7424 20.8885 30.0062 20.8354 30.2426 20.7292C30.4824 20.6196 30.6828 20.4637 30.8438 20.2616C31.0083 20.0595 31.123 19.8162 31.1881 19.5319H32.6835C32.6287 20.0423 32.4625 20.498 32.185 20.8988C31.9075 21.2996 31.5358 21.6148 31.0699 21.8443C30.6075 22.0738 30.0645 22.1886 29.441 22.1886ZM35.7397 19.352L35.7295 17.4764H35.9967L39.1416 14.1362H40.9812L37.3944 17.9389H37.1529L35.7397 19.352ZM34.3266 22.0293V11.5052H35.8631V22.0293H34.3266ZM39.3111 22.0293L36.4848 18.278L37.5434 17.2041L41.197 22.0293H39.3111ZM49.8956 14.1362V15.3695H45.5842V14.1362H49.8956ZM46.7404 12.2452H48.2769V19.7117C48.2769 20.0098 48.3214 20.2342 48.4105 20.3849C48.4996 20.5322 48.6143 20.6333 48.7548 20.6881C48.8987 20.7395 49.0545 20.7652 49.2224 20.7652C49.3457 20.7652 49.4537 20.7566 49.5461 20.7395C49.6386 20.7224 49.7106 20.7087 49.762 20.6984L50.0395 21.9676C49.9504 22.0019 49.8236 22.0361 49.6592 22.0704C49.4948 22.1081 49.2892 22.1286 49.0426 22.1321C48.6383 22.1389 48.2615 22.067 47.912 21.9162C47.5626 21.7655 47.28 21.5326 47.0642 21.2174C46.8483 20.9022 46.7404 20.5065 46.7404 20.0303V12.2452ZM54.8352 22.1886C54.0952 22.1886 53.4494 22.019 52.8979 21.6799C52.3463 21.3407 51.9181 20.8662 51.6132 20.2564C51.3083 19.6467 51.1558 18.9341 51.1558 18.1187C51.1558 17.3 51.3083 16.584 51.6132 15.9708C51.9181 15.3575 52.3463 14.8814 52.8979 14.5422C53.4494 14.2031 54.0952 14.0335 54.8352 14.0335C55.5751 14.0335 56.2209 14.2031 56.7725 14.5422C57.324 14.8814 57.7522 15.3575 58.0571 15.9708C58.362 16.584 58.5145 17.3 58.5145 18.1187C58.5145 18.9341 58.362 19.6467 58.0571 20.2564C57.7522 20.8662 57.324 21.3407 56.7725 21.6799C56.2209 22.019 55.5751 22.1886 54.8352 22.1886ZM54.8403 20.8988C55.3199 20.8988 55.7173 20.772 56.0325 20.5185C56.3477 20.265 56.5806 19.9276 56.7313 19.5062C56.8855 19.0848 56.9626 18.6206 56.9626 18.1136C56.9626 17.61 56.8855 17.1475 56.7313 16.7262C56.5806 16.3014 56.3477 15.9605 56.0325 15.7036C55.7173 15.4466 55.3199 15.3182 54.8403 15.3182C54.3573 15.3182 53.9564 15.4466 53.6378 15.7036C53.3227 15.9605 53.088 16.3014 52.9338 16.7262C52.7831 17.1475 52.7077 17.61 52.7077 18.1136C52.7077 18.6206 52.7831 19.0848 52.9338 19.5062C53.088 19.9276 53.3227 20.265 53.6378 20.5185C53.9564 20.772 54.3573 20.8988 54.8403 20.8988ZM67.3839 22.1886C66.6199 22.1886 65.9622 22.0156 65.4106 21.6696C64.8625 21.3202 64.4411 20.8388 64.1465 20.2256C63.8519 19.6124 63.7046 18.9101 63.7046 18.1187C63.7046 17.3171 63.8553 16.6097 64.1568 15.9965C64.4582 15.3798 64.883 14.8985 65.4312 14.5525C65.9793 14.2065 66.6251 14.0335 67.3685 14.0335C67.968 14.0335 68.5024 14.1448 68.9717 14.3675C69.4411 14.5867 69.8196 14.8951 70.1074 15.2925C70.3986 15.6898 70.5716 16.154 70.6264 16.685H69.131C69.0488 16.3151 68.8604 15.9965 68.5658 15.7292C68.2746 15.462 67.884 15.3284 67.3941 15.3284C66.9659 15.3284 66.5908 15.4415 66.2688 15.6676C65.9502 15.8903 65.7018 16.2089 65.5237 16.6234C65.3455 17.0345 65.2564 17.5209 65.2564 18.0828C65.2564 18.6583 65.3438 19.155 65.5185 19.573C65.6932 19.9909 65.9399 20.3147 66.2585 20.5442C66.5805 20.7737 66.9591 20.8885 67.3941 20.8885C67.6853 20.8885 67.9491 20.8354 68.1855 20.7292C68.4253 20.6196 68.6257 20.4637 68.7867 20.2616C68.9512 20.0595 69.0659 19.8162 69.131 19.5319H70.6264C70.5716 20.0423 70.4054 20.498 70.1279 20.8988C69.8504 21.2996 69.4787 21.6148 69.0128 21.8443C68.5504 22.0738 68.0074 22.1886 67.3839 22.1886ZM75.5942 22.1886C74.8543 22.1886 74.2085 22.019 73.6569 21.6799C73.1054 21.3407 72.6772 20.8662 72.3723 20.2564C72.0674 19.6467 71.9149 18.9341 71.9149 18.1187C71.9149 17.3 72.0674 16.584 72.3723 15.9708C72.6772 15.3575 73.1054 14.8814 73.6569 14.5422C74.2085 14.2031 74.8543 14.0335 75.5942 14.0335C76.3342 14.0335 76.98 14.2031 77.5315 14.5422C78.0831 14.8814 78.5113 15.3575 78.8162 15.9708C79.1211 16.584 79.2735 17.3 79.2735 18.1187C79.2735 18.9341 79.1211 19.6467 78.8162 20.2564C78.5113 20.8662 78.0831 21.3407 77.5315 21.6799C76.98 22.019 76.3342 22.1886 75.5942 22.1886ZM75.5994 20.8988C76.079 20.8988 76.4764 20.772 76.7915 20.5185C77.1067 20.265 77.3397 19.9276 77.4904 19.5062C77.6446 19.0848 77.7217 18.6206 77.7217 18.1136C77.7217 17.61 77.6446 17.1475 77.4904 16.7262C77.3397 16.3014 77.1067 15.9605 76.7915 15.7036C76.4764 15.4466 76.079 15.3182 75.5994 15.3182C75.1163 15.3182 74.7155 15.4466 74.3969 15.7036C74.0817 15.9605 73.8471 16.3014 73.6929 16.7262C73.5422 17.1475 73.4668 17.61 73.4668 18.1136C73.4668 18.6206 73.5422 19.0848 73.6929 19.5062C73.8471 19.9276 74.0817 20.265 74.3969 20.5185C74.7155 20.772 75.1163 20.8988 75.5994 20.8988ZM80.9886 24.9892V14.1362H82.4891V15.4158H82.6176C82.7066 15.2513 82.8351 15.0612 83.003 14.8454C83.1708 14.6296 83.4038 14.4411 83.7018 14.2801C83.9999 14.1157 84.3938 14.0335 84.8837 14.0335C85.5209 14.0335 86.0896 14.1945 86.5898 14.5165C87.0899 14.8385 87.4822 15.3027 87.7665 15.9091C88.0543 16.5155 88.1982 17.2452 88.1982 18.0982C88.1982 18.9512 88.056 19.6826 87.7717 20.2924C87.4873 20.8988 87.0968 21.3664 86.6 21.6953C86.1033 22.0207 85.5363 22.1835 84.8991 22.1835C84.4195 22.1835 84.0273 22.103 83.7224 21.9419C83.4209 21.7809 83.1845 21.5925 83.0132 21.3767C82.8419 21.1609 82.71 20.969 82.6176 20.8011H82.5251V24.9892H80.9886ZM82.4942 18.0828C82.4942 18.6378 82.5747 19.1242 82.7357 19.5422C82.8968 19.9601 83.1297 20.2873 83.4346 20.5237C83.7395 20.7566 84.1129 20.8731 84.5548 20.8731C85.0139 20.8731 85.3976 20.7515 85.7059 20.5082C86.0142 20.2616 86.2472 19.9276 86.4048 19.5062C86.5658 19.0848 86.6463 18.6103 86.6463 18.0828C86.6463 17.5621 86.5675 17.0944 86.4099 16.6799C86.2558 16.2654 86.0228 15.9382 85.7111 15.6984C85.4027 15.4586 85.0173 15.3387 84.5548 15.3387C84.1095 15.3387 83.7327 15.4535 83.4243 15.683C83.1194 15.9125 82.8882 16.2328 82.7306 16.6439C82.573 17.055 82.4942 17.5346 82.4942 18.0828ZM90.6224 24.9892C90.3928 24.9892 90.1839 24.9703 89.9955 24.9327C89.807 24.8984 89.6666 24.8607 89.5741 24.8196L89.9441 23.5606C90.225 23.636 90.4751 23.6685 90.6943 23.6583C90.9136 23.648 91.1071 23.5658 91.275 23.4116C91.4463 23.2574 91.597 23.0057 91.7272 22.6562L91.9173 22.1321L89.0294 14.1362H90.6738L92.6727 20.2616H92.7549L94.7539 14.1362H96.4034L93.1506 23.0827C92.9999 23.4938 92.808 23.8415 92.5751 24.1259C92.3421 24.4137 92.0646 24.6295 91.7426 24.7734C91.4206 24.9172 91.0472 24.9892 90.6224 24.9892Z" fill="white"/>
<path d="M51.8529 41L46.6313 31.9559H57.0745L51.8529 41Z" fill="black"/>
</svg>
