<svg width="51" height="53" viewBox="0 0 51 53" fill="none" xmlns="http://www.w3.org/2000/svg">
<g opacity="0.2" clip-path="url(#clip0_1_72)" filter="url(#filter0_f_1_72)">
<path d="M24.8433 25.2303C19.7193 28.6056 15.5814 33.6172 17.5879 36.6634C19.5945 39.7096 25.8326 37.8865 30.9567 34.5112C36.0818 31.1353 40.2187 26.1243 38.2121 23.0781C36.2056 20.0319 29.9685 21.8544 24.8433 25.2303ZM26.4378 38.8748L28.4756 41.9684C29.9543 41.4365 31.4893 40.696 32.9679 39.8093L30.9301 36.7156C29.5049 37.5768 28.0006 38.2998 26.4378 38.8748V38.8748ZM32.9919 35.3561L35.0297 38.4497C36.3844 37.4813 37.6427 36.3845 38.787 35.1748L36.7492 32.0811C35.6049 33.2909 34.3466 34.3876 32.9919 35.3561V35.3561ZM38.3769 30.0626L40.4147 33.1563C41.7591 31.1543 42.247 29.2035 41.2688 27.7186L39.231 24.6249C40.2092 26.1099 39.7213 28.0607 38.3769 30.0626ZM25.9778 42.6659L23.94 39.5723C21.571 40.0164 19.5843 39.6941 18.6068 38.2102L20.6446 41.3038C21.6221 42.7877 23.6088 43.1101 25.9778 42.6659Z" fill="black"/>
</g>
<g clip-path="url(#clip1_1_72)">
<path d="M16.1978 14.1165C11.0738 17.4918 6.93588 22.5034 8.94243 25.5496C10.949 28.5958 17.1871 26.7727 22.3112 23.3974C27.4363 20.0215 31.5732 15.0105 29.5666 11.9643C27.5601 8.91815 21.323 10.7406 16.1978 14.1165ZM17.7923 27.761L19.8301 30.8547C21.3088 30.3227 22.8438 29.5822 24.3224 28.6955L22.2846 25.6019C20.8594 26.463 19.3551 27.1861 17.7923 27.761V27.761ZM24.3464 24.2423L26.3842 27.3359C27.7389 26.3675 28.9972 25.2708 30.1415 24.061L28.1037 20.9674C26.9594 22.1771 25.7011 23.2739 24.3464 24.2423V24.2423ZM29.7314 18.9489L31.7692 22.0425C33.1136 20.0406 33.6015 18.0897 32.6233 16.6048L30.5855 13.5112C31.5637 14.9961 31.0758 16.9469 29.7314 18.9489ZM17.3323 31.5522L15.2945 28.4585C12.9255 28.9027 10.9388 28.5803 9.96133 27.0964L11.9991 30.1901C12.9766 31.674 14.9633 31.9963 17.3323 31.5522Z" fill="black"/>
</g>
<g opacity="0.52" clip-path="url(#clip2_1_72)" filter="url(#filter1_f_1_72)">
<path d="M19.9029 19.055C14.7788 22.4303 10.641 27.4419 12.6475 30.4881C14.6541 33.5343 20.8922 31.7112 26.0163 28.3359C31.1414 24.96 35.2782 19.949 33.2717 16.9028C31.2652 13.8566 25.028 15.6791 19.9029 19.055ZM21.4974 32.6995L23.5352 35.7931C25.0139 35.2612 26.5489 34.5207 28.0275 33.634L25.9897 30.5403C24.5645 31.4015 23.0602 32.1245 21.4974 32.6995V32.6995ZM28.0515 29.1808L30.0892 32.2744C31.444 31.306 32.7022 30.2093 33.8466 28.9995L31.8088 25.9058C30.6645 27.1156 29.4062 28.2123 28.0515 29.1808V29.1808ZM33.4365 23.8873L35.4743 26.981C36.8187 24.979 37.3065 23.0282 36.3284 21.5433L34.2906 18.4496C35.2687 19.9346 34.7809 21.8854 33.4365 23.8873ZM21.0374 36.4907L18.9996 33.397C16.6305 33.8411 14.6439 33.5188 13.6664 32.0349L15.7042 35.1285C16.6817 36.6125 18.6683 36.9348 21.0374 36.4907Z" fill="black"/>
</g>
<defs>
<filter id="filter0_f_1_72" x="6.60164" y="9.45369" width="45.9911" height="45.9906" filterUnits="userSpaceOnUse" color-interpolation-filters="sRGB">
<feFlood flood-opacity="0" result="BackgroundImageFix"/>
<feBlend mode="normal" in="SourceGraphic" in2="BackgroundImageFix" result="shape"/>
<feGaussianBlur stdDeviation="1.23483" result="effect1_foregroundBlur_1_72"/>
</filter>
<filter id="filter1_f_1_72" x="2.89603" y="4.5142" width="43.5214" height="43.5209" filterUnits="userSpaceOnUse" color-interpolation-filters="sRGB">
<feFlood flood-opacity="0" result="BackgroundImageFix"/>
<feBlend mode="normal" in="SourceGraphic" in2="BackgroundImageFix" result="shape"/>
<feGaussianBlur stdDeviation="0.617413" result="effect1_foregroundBlur_1_72"/>
</filter>
<clipPath id="clip0_1_72">
<rect width="29.6358" height="29.6358" fill="white" transform="translate(9.07129 28.2256) rotate(-33.3731)"/>
</clipPath>
<clipPath id="clip1_1_72">
<rect width="29.6358" height="29.6358" fill="white" transform="translate(0.427734 17.1113) rotate(-33.3731)"/>
</clipPath>
<clipPath id="clip2_1_72">
<rect width="29.6358" height="29.6358" fill="white" transform="translate(4.13086 22.0513) rotate(-33.3731)"/>
</clipPath>
</defs>
</svg>
