<svg width="42" height="42" viewBox="0 0 42 42" fill="none" xmlns="http://www.w3.org/2000/svg">
<g clip-path="url(#clip0_1_262)">
<path d="M32.3475 0.101562H8.79464V3.86533H0.748535V10.0463C0.748535 14.4875 4.36175 18.1007 8.803 18.1007H9.84849C11.3707 21.4547 14.4068 23.9722 18.0953 24.7584V29.8103H15.2098C14.3232 29.8103 13.5955 30.5296 13.5955 31.4245V33.5406H11.1198V41.1016H30.0223V33.5406H27.5549V31.4245C27.5549 30.5379 26.8356 29.8103 25.9407 29.8103H23.0551V24.7584C26.7436 23.9639 29.7797 21.4547 31.302 18.1007H32.3475C36.7887 18.1007 40.4019 14.4875 40.4019 10.0463V3.86533H32.3475V0.101562ZM8.79464 14.0275C6.60329 14.0275 4.82177 12.246 4.82177 10.0546V7.94693H8.79464V13.258C8.79464 13.5173 8.803 13.7766 8.81973 14.0275H8.79464ZM23.8414 33.9253V37.9734H17.3008V33.9253H23.8414ZM19.7681 9.94591C19.9605 10.1717 20.3285 10.4059 20.8638 10.6401C22.11 11.167 23.0217 11.694 23.6072 12.2125C24.1926 12.7395 24.4854 13.4839 24.4854 14.4541C24.4854 15.3825 24.1926 16.1185 23.5988 16.6872C23.097 17.164 22.4529 17.4735 21.6584 17.624V18.9706C21.6584 19.1462 21.5162 19.2884 21.3322 19.2884H20.1612C19.9856 19.2884 19.835 19.1462 19.835 18.9706V17.6658C18.8397 17.5487 18.0117 17.1974 17.3509 16.6036C16.7404 16.0516 16.4058 15.2737 16.3556 14.2617C16.3473 14.0526 16.5229 13.8853 16.732 13.877L18.6641 13.8435C18.6641 13.8435 18.6641 13.8435 18.6724 13.8435C18.8648 13.8435 19.0321 13.9857 19.0488 14.1697C19.0906 14.6548 19.2328 15.0228 19.467 15.257C19.7598 15.5497 20.1361 15.6919 20.5961 15.6919C20.9809 15.6919 21.2736 15.5832 21.4744 15.3574C21.6751 15.1315 21.7755 14.8388 21.7755 14.4792C21.7755 14.061 21.6751 13.7348 21.466 13.5006C21.2653 13.2664 20.8972 13.0406 20.3787 12.8231C19.1074 12.3213 18.1873 11.8194 17.6102 11.3092C17.0331 10.799 16.7404 10.0463 16.7404 9.05097C16.7404 8.15603 17.0498 7.41164 17.6604 6.83453C18.2124 6.3076 18.9401 5.98141 19.835 5.85595V4.44244C19.835 4.2668 19.9772 4.12461 20.1612 4.12461H21.3322C21.5078 4.12461 21.6584 4.2668 21.6584 4.44244V5.88104C22.4948 6.04832 23.1722 6.4247 23.6824 7.01017C24.1759 7.57055 24.4436 8.27312 24.4937 9.10952C24.5105 9.31862 24.3265 9.49426 24.1174 9.49426L22.1853 9.51935H22.1769C21.9846 9.51935 21.8173 9.38553 21.8006 9.19316C21.7671 8.77496 21.6584 8.45713 21.4744 8.23131C21.2485 7.94693 20.9474 7.80474 20.5711 7.80474C20.1863 7.80474 19.9103 7.92184 19.7263 8.15603C19.5423 8.39022 19.4503 8.69132 19.4503 9.05097C19.4754 9.41898 19.5674 9.72009 19.7681 9.94591ZM36.3203 7.94693V10.0546C36.3203 12.246 34.5388 14.0275 32.3475 14.0275H32.3224C32.3391 13.7766 32.3475 13.5173 32.3475 13.258V7.94693H36.3203Z" fill="black"/>
</g>
<defs>
<clipPath id="clip0_1_262">
<rect width="41" height="41" fill="white" transform="translate(0.0751953 0.101562)"/>
</clipPath>
</defs>
</svg>
