<svg width="27" height="21" viewBox="0 0 27 21" fill="none" xmlns="http://www.w3.org/2000/svg">
<path d="M17.2168 0.130859C16.9519 0.605294 16.7158 1.09526 16.5098 1.5981C14.4861 1.27804 12.4246 1.27804 10.4008 1.5981C10.1948 1.09526 9.95875 0.605294 9.69384 0.130859C7.78748 0.456588 5.93425 1.03993 4.18503 1.86487C1.05706 6.37902 -0.3615 11.8594 0.183463 17.3242C2.22191 18.8567 4.50976 20.0254 6.9461 20.7789C7.50087 20.0461 7.99598 19.27 8.42668 18.458C7.6318 18.1649 6.8678 17.7941 6.14579 17.3509C6.34382 17.2192 6.53114 17.072 6.70601 16.9107C8.81144 17.9249 11.1184 18.4515 13.4553 18.4515C15.7923 18.4515 18.0992 17.9249 20.2046 16.9107C20.3914 17.0708 20.5781 17.2175 20.7648 17.3509C20.0389 17.7906 19.2756 18.1655 18.4839 18.4714C18.8968 19.3017 19.3787 20.0959 19.9245 20.8456C22.3578 20.0947 24.6417 18.9257 26.6738 17.3909C27.2319 11.9251 25.8121 6.44023 22.6722 1.93156C20.9427 1.08955 19.1077 0.483891 17.2168 0.130859ZM9.02692 14.203C8.35943 14.1551 7.73647 13.8505 7.2888 13.3531C6.84113 12.8556 6.60356 12.2041 6.62598 11.5353C6.60018 10.8656 6.83658 10.2122 7.28492 9.71408C7.73326 9.21592 8.3582 8.91225 9.02692 8.8676C9.69563 8.91225 10.3206 9.21592 10.7689 9.71408C11.2173 10.2122 11.4536 10.8656 11.4279 11.5353C11.4536 12.205 11.2173 12.8584 10.7689 13.3565C10.3206 13.8547 9.69563 14.1584 9.02692 14.203ZM17.8837 14.203C17.2162 14.1551 16.5933 13.8505 16.1456 13.3531C15.6979 12.8556 15.4604 12.2041 15.4828 11.5353C15.457 10.8656 15.6934 10.2122 16.1417 9.71408C16.5901 9.21592 17.215 8.91225 17.8837 8.8676C18.5537 8.90892 19.1806 9.21161 19.6297 9.71053C20.0787 10.2095 20.3139 10.8647 20.2846 11.5353C20.3139 12.2059 20.0787 12.8612 19.6297 13.3601C19.1806 13.859 18.5537 14.1617 17.8837 14.203Z" fill="#1AE9B7"/>
</svg>
