<svg width="48" height="62" viewBox="0 0 48 62" fill="none" xmlns="http://www.w3.org/2000/svg">
<path d="M10 24H8V40C8 41.0609 8.42143 42.0783 9.17157 42.8284C9.92172 43.5786 10.9391 44 12 44H22V24H10ZM36 24H26V44H36C37.0609 44 38.0783 43.5786 38.8284 42.8284C39.5786 42.0783 40 41.0609 40 40V24H36ZM37.582 14C37.8753 13.0276 38.0163 12.0156 38 11C38 7.14 34.86 4 31 4C27.756 4 25.59 6.964 24.192 10.17C22.814 7.14 20.538 4 17 4C13.14 4 10 7.14 10 11C10 12.192 10.158 13.178 10.418 14H4V22H22V18H26V22H44V14H37.582ZM14 11C14 9.346 15.346 8 17 8C18.776 8 20.428 11.05 21.396 14H16C15.252 14 14 14 14 11ZM31 8C32.654 8 34 9.346 34 11C34 14 32.748 14 32 14H27.046C28.066 10.848 29.548 8 31 8Z" fill="#1AE9B7"/>
<path d="M38 68H40V52C40 50.9391 39.5786 49.9217 38.8284 49.1716C38.0783 48.4214 37.0609 48 36 48H26L26 68H38ZM12 68H22L22 48H12C10.9391 48 9.92172 48.4214 9.17157 49.1716C8.42143 49.9217 8 50.9391 8 52V68H12ZM10.418 78C10.1247 78.9724 9.98367 79.9844 10 81C10 84.86 13.14 88 17 88C20.244 88 22.41 85.036 23.808 81.83C25.186 84.86 27.462 88 31 88C34.86 88 38 84.86 38 81C38 79.808 37.842 78.822 37.582 78H44V70H26V74H22V70H4V78H10.418ZM34 81C34 82.654 32.654 84 31 84C29.224 84 27.572 80.95 26.604 78H32C32.748 78 34 78 34 81ZM17 84C15.346 84 14 82.654 14 81C14 78 15.252 78 16 78H20.954C19.934 81.152 18.452 84 17 84Z" fill="url(#paint0_linear_2_22752)"/>
<defs>
<linearGradient id="paint0_linear_2_22752" x1="-67.5" y1="317" x2="26" y2="40.5" gradientUnits="userSpaceOnUse">
<stop stop-color="#1AE9B7"/>
<stop offset="1" stop-color="#1AE9B7" stop-opacity="0"/>
</linearGradient>
</defs>
</svg>
