<svg width="29" height="30" viewBox="0 0 29 30" fill="none" xmlns="http://www.w3.org/2000/svg">
<g clip-path="url(#clip0_1_107)">
<path d="M25.759 9.52885C26.1177 9.52885 26.4424 9.38352 26.6775 9.14838C26.9127 8.91324 27.058 8.58857 27.058 8.22983C27.058 7.51242 26.4764 6.93115 25.759 6.93115C25.0416 6.93115 24.46 7.51276 24.46 8.22983C24.46 8.94724 25.0415 9.52885 25.759 9.52885Z" fill="#1AE9B7"/>
<path d="M6.8832 23.1401C6.21138 23.1401 5.66699 23.6849 5.66699 24.3563C5.66699 25.0278 6.21172 25.5726 6.8832 25.5726C7.55468 25.5726 8.09941 25.0282 8.09941 24.3563C8.09941 23.6846 7.55503 23.1401 6.8832 23.1401Z" fill="#1AE9B7"/>
<path d="M25.1777 10.2339V20.7139H26.3388V10.2339C26.1633 10.3223 25.9682 10.3768 25.7583 10.3768C25.5484 10.3768 25.3532 10.322 25.1777 10.2339Z" fill="#1AE9B7"/>
<path d="M16.9369 23.1401C16.2651 23.1401 15.7207 23.6849 15.7207 24.3563C15.7207 25.0278 16.2651 25.5726 16.9369 25.5726C17.6087 25.5726 18.1531 25.0282 18.1531 24.3563C18.1531 23.6846 17.6087 23.1401 16.9369 23.1401Z" fill="#1AE9B7"/>
<path d="M22.8522 1.40918H0.769004C0.39381 1.40918 0.0898438 1.71315 0.0898438 2.08834V28.6548H23.5317V2.08834C23.5313 1.71315 23.2274 1.40918 22.8522 1.40918ZM15.9607 3.06557C16.5255 3.06557 16.9832 3.52323 16.9832 4.08805C16.9832 4.65286 16.5255 5.11052 15.9607 5.11052C15.396 5.11052 14.9383 4.65286 14.9383 4.08805C14.9383 3.52323 15.396 3.06557 15.9607 3.06557ZM11.9096 2.25966C12.919 2.25966 13.7376 3.07818 13.7376 4.08764C13.7376 5.09709 12.919 5.91562 11.9096 5.91562C10.9001 5.91562 10.0816 5.09709 10.0816 4.08764C10.0816 3.07818 10.9001 2.25966 11.9096 2.25966ZM7.8584 3.06557C8.42314 3.06557 8.88088 3.52323 8.88088 4.08805C8.88088 4.65286 8.42314 5.11052 7.8584 5.11052C7.29366 5.11052 6.83592 4.65286 6.83592 4.08805C6.83634 3.52323 7.294 3.06557 7.8584 3.06557ZM6.88295 26.2771C5.82188 26.2771 4.96194 25.4172 4.96194 24.3561C4.96194 23.295 5.82222 22.4351 6.88295 22.4351C7.94402 22.4351 8.80396 23.2954 8.80396 24.3561C8.80396 25.4168 7.94402 26.2771 6.88295 26.2771ZM11.9096 26.2771C10.8485 26.2771 9.98857 25.4172 9.98857 24.3561C9.98857 23.295 10.8485 22.4351 11.9096 22.4351C12.9706 22.4351 13.8306 23.2954 13.8306 24.3561C13.8306 25.4168 12.9706 26.2771 11.9096 26.2771ZM16.9362 26.2771C15.8751 26.2771 15.0152 25.4172 15.0152 24.3561C15.0152 23.295 15.8751 22.4351 16.9362 22.4351C17.9973 22.4351 18.8572 23.2954 18.8572 24.3561C18.8571 25.4168 17.9972 26.2771 16.9362 26.2771ZM22.0491 19.8329H1.77002V6.84747H22.0491V19.8329H22.0491Z" fill="#1AE9B7"/>
<path d="M11.9096 23.1401C11.2377 23.1401 10.6934 23.6849 10.6934 24.3563C10.6934 25.0278 11.2381 25.5726 11.9096 25.5726C12.5814 25.5726 13.1258 25.0282 13.1258 24.3563C13.1258 23.6846 12.5814 23.1401 11.9096 23.1401Z" fill="#1AE9B7"/>
<path d="M7.85919 8.01465H7.85885H2.60059V18.6487H7.85919V8.01465ZM7.18106 12.4088C7.18037 12.4088 7.18003 12.4088 7.17969 12.4088C7.17969 12.4161 7.18106 12.4222 7.18106 12.4295C7.18106 13.6762 5.31695 14.1315 6.06734 15.9061H4.04707C3.79191 14.3144 6.01229 13.4955 6.16215 12.6293C5.94312 12.7145 5.72622 12.7925 5.40333 12.7925C4.74172 12.7925 4.67714 12.4688 3.78313 12.417V13.0459H3.27837V11.6269H3.78313V11.6346C4.67714 11.6869 4.74172 12.0102 5.40333 12.0102C6.12252 12.0102 6.31454 11.6265 7.18113 11.6265V12.4088H7.18106Z" fill="#1AE9B7"/>
<path d="M26.2327 21.4009H24.2832V26.8037H26.2327C27.7247 26.8037 28.9339 25.5942 28.9339 24.1024C28.9342 22.6104 27.7247 21.4009 26.2327 21.4009Z" fill="#1AE9B7"/>
<path d="M20.8846 8.01465H20.8842H15.626V18.6487H20.8846V8.01465ZM20.2065 12.4088C20.2058 12.4088 20.2054 12.4088 20.2051 12.4088C20.2051 12.4161 20.2065 12.4222 20.2065 12.4295C20.2065 13.6762 18.3423 14.1315 19.0927 15.9061H17.0724C16.8172 14.3144 19.0376 13.4955 19.1875 12.6293C18.9684 12.7145 18.7515 12.7925 18.4287 12.7925C17.767 12.7925 17.7025 12.4688 16.8085 12.417V13.0459H16.3037V11.6269H16.8085V11.6346C17.7025 11.6869 17.7674 12.0102 18.4287 12.0102C19.1478 12.0102 19.3399 11.6265 20.2065 11.6265V12.4088Z" fill="#1AE9B7"/>
<path d="M14.3709 8.01465H9.1123V18.6487H14.3709V8.01465ZM13.6931 12.4088C13.6924 12.4088 13.6921 12.4088 13.6917 12.4088C13.6917 12.4161 13.6931 12.4222 13.6931 12.4295C13.6931 13.6762 11.829 14.1315 12.5794 15.9061H10.5591C10.3039 14.3144 12.5243 13.4955 12.6741 12.6293C12.4551 12.7145 12.2382 12.7925 11.9153 12.7925C11.2541 12.7925 11.1891 12.4688 10.2951 12.417V13.0459H9.79037V11.6269H10.2951V11.6346C11.1891 11.6869 11.2541 12.0102 11.9153 12.0102C12.6345 12.0102 12.8265 11.6265 13.6931 11.6265V12.4088V12.4088Z" fill="#1AE9B7"/>
</g>
<defs>
<clipPath id="clip0_1_107">
<rect width="28.844" height="28.844" fill="white" transform="translate(0.0898438 0.610352)"/>
</clipPath>
</defs>
</svg>
