<svg width="87" height="77" viewBox="0 0 87 77" fill="none" xmlns="http://www.w3.org/2000/svg">
<g clip-path="url(#clip0_1_16)">
<path d="M70.5232 55.8309L71.6169 49.6729C67.4715 60.0074 57.7919 67.6842 45.9402 68.7062C45.3133 68.7602 44.689 68.795 44.0684 68.8108L50.3149 69.9203C58.85 68.0412 66.0138 62.8364 70.5232 55.8309Z" fill="#1AE9B7"/>
<path d="M58.9365 71.4506C62.6971 69.6764 66.0899 67.2858 68.9973 64.4194L68.6115 66.5925C67.9859 70.1136 64.6247 72.461 61.1034 71.8357L58.9365 71.4506Z" fill="#1AE9B7"/>
<path d="M25.8905 65.5817C18.7993 61.0354 13.5449 53.773 11.7031 45.1204L12.8524 38.6499C12.8608 39.4172 12.898 40.1896 12.965 40.9665C13.9904 52.8584 21.716 62.5635 32.1037 66.6852L25.8905 65.5817Z" fill="#1AE9B7"/>
<path d="M14.8242 27.5442C18.8503 16.9485 28.6544 9.03125 40.7033 7.99224C41.4389 7.92883 42.1706 7.89209 42.8974 7.88121L36.4899 6.74316C27.7864 8.61282 20.4948 13.9367 15.9674 21.1076L14.8242 27.5442Z" fill="#1AE9B7"/>
<path d="M10.1565 53.8291L9.74638 56.1384C9.121 59.6595 11.4684 63.0207 14.9895 63.6463L17.2788 64.0529C14.366 61.1047 11.9429 57.6556 10.1565 53.8291Z" fill="#1AE9B7"/>
<path d="M17.5137 12.4102C20.4757 9.45987 23.9491 7.00616 27.807 5.2L25.4455 4.78056C21.9244 4.15518 18.563 6.5026 17.9375 10.0237L17.5137 12.4102Z" fill="#1AE9B7"/>
<path d="M69.2881 12.5688L71.5582 12.972C75.0793 13.5974 77.4267 16.9588 76.8014 20.4799L76.407 22.6995C74.6127 18.9076 72.1918 15.4903 69.2881 12.5688Z" fill="#1AE9B7"/>
<path d="M60.6142 11.0276C67.6986 15.519 72.9724 22.7121 74.8792 31.298L73.7796 37.489C73.7627 36.906 73.729 36.3196 73.6781 35.7311C72.6428 23.7253 64.7787 13.9485 54.2402 9.89551L60.6142 11.0276Z" fill="#1AE9B7"/>
<path d="M51.0901 37.679C51.4599 41.9691 48.2821 45.747 43.9917 46.117C39.7016 46.4868 35.9237 43.3088 35.5537 39.0186C35.1839 34.7285 38.3619 30.9506 42.6521 30.5806C46.9422 30.2106 50.7201 33.3886 51.0901 37.679Z" fill="#1AE9B7"/>
<path fill-rule="evenodd" clip-rule="evenodd" d="M44.5165 52.2148C52.1743 51.5545 57.8472 44.8113 57.1868 37.1532C56.5265 29.4953 49.783 23.8226 42.125 24.4829C34.4671 25.1433 28.7943 31.8866 29.4546 39.5447C30.115 47.2026 36.8584 52.8754 44.5165 52.2148ZM55.3308 37.3133C55.903 43.9462 50.9893 49.7872 44.3564 50.3591C37.7235 50.9309 31.8825 46.0176 31.3106 39.3846C30.7388 32.7515 35.6521 26.9107 42.285 26.3388C48.9182 25.7668 54.759 30.6804 55.3308 37.3133Z" fill="#1AE9B7"/>
<path fill-rule="evenodd" clip-rule="evenodd" d="M63.2853 36.6268C64.236 47.6523 56.0686 57.3613 45.0428 58.312C34.0173 59.263 24.3083 51.0955 23.3575 40.0697C22.4067 29.0439 30.5741 19.3351 41.5999 18.3843C52.6256 17.4336 62.3344 25.6009 63.2853 36.6268ZM44.8827 56.4562C54.8836 55.5938 62.2918 46.7875 61.4293 36.7866C60.5668 26.786 51.7606 19.3779 41.76 20.2403C31.7591 21.1026 24.3509 29.909 25.2133 39.9096C26.0757 49.9105 34.8821 57.3187 44.8827 56.4562Z" fill="#1AE9B7"/>
<path fill-rule="evenodd" clip-rule="evenodd" d="M45.5746 64.4633C59.9972 63.2194 70.681 50.5192 69.4373 36.0964C68.1937 21.6737 55.4935 10.99 41.0707 12.2337C26.6479 13.4774 15.9641 26.1775 17.2078 40.6003C18.4515 55.0231 31.1518 65.7069 45.5746 64.4633ZM67.5284 36.2612C68.6812 49.6297 58.7784 61.4015 45.4099 62.5544C32.0413 63.7072 20.2695 53.8044 19.1167 40.4358C17.9639 27.0672 27.8666 15.2954 41.2352 14.1426C54.6038 12.9898 66.3756 22.8926 67.5284 36.2612Z" fill="#1AE9B7"/>
<path d="M31.8625 13.3877C30.4356 13.7498 29.2864 14.5635 28.4916 15.6173C26.5651 15.0518 24.4851 14.9822 22.449 15.4812L5.8374 19.5522C2.33058 20.4116 0.632574 24.3985 2.44288 27.5224L6.34796 34.2611C7.52971 36.3003 9.89525 37.3406 12.1968 36.8328L17.1024 35.7502C15.0361 37.3395 14.3042 40.3131 15.7209 42.7578L18.8022 48.0747C20.0059 50.1521 22.4344 51.1881 24.767 50.6194L31.3012 49.0262L32.0449 50.0963L24.5695 52.0968C21.1277 53.0179 19.4995 56.956 21.2859 60.0388L25.8439 67.9039C27.1063 70.0824 29.7042 71.1024 32.1115 70.3653L52.6377 64.0788C54.7931 63.4187 56.4439 62.0019 57.4488 60.2424C59.7434 61.0759 62.2981 61.1882 64.7546 60.4529L80.7817 55.6565C84.2516 54.6181 85.7421 50.5304 83.7548 47.502L80.7872 42.9802C78.4685 39.447 74.1047 37.8561 70.0561 39.0676L65.6036 40.4003L47.0865 13.3811C45.7339 11.407 43.2933 10.4865 40.9736 11.0752L31.8625 13.3877Z" fill="#231F20" stroke="white" stroke-width="1.77405"/>
<path d="M31.8625 13.3877C30.4356 13.7498 29.2864 14.5635 28.4916 15.6173C26.5651 15.0518 24.4851 14.9822 22.449 15.4812L5.8374 19.5522C2.33058 20.4116 0.632574 24.3985 2.44288 27.5224L6.34796 34.2611C7.52971 36.3003 9.89525 37.3406 12.1968 36.8328L17.1024 35.7502C15.0361 37.3395 14.3042 40.3131 15.7209 42.7578L18.8022 48.0747C20.0059 50.1521 22.4344 51.1881 24.767 50.6194L31.3012 49.0262L32.0449 50.0963L24.5695 52.0968C21.1277 53.0179 19.4995 56.956 21.2859 60.0388L25.8439 67.9039C27.1063 70.0824 29.7042 71.1024 32.1115 70.3653L52.6377 64.0788C54.7931 63.4187 56.4439 62.0019 57.4488 60.2424C59.7434 61.0759 62.2981 61.1882 64.7546 60.4529L80.7817 55.6565C84.2516 54.6181 85.7421 50.5304 83.7548 47.502L80.7872 42.9802C78.4685 39.447 74.1047 37.8561 70.0561 39.0676L65.6036 40.4003L47.0865 13.3811C45.7339 11.407 43.2933 10.4865 40.9736 11.0752L31.8625 13.3877Z" fill="#0C2E36"/>
<path d="M6.35663 25.2538L10.2617 31.9925C10.4557 32.3272 10.844 32.4979 11.2218 32.4146L23.137 29.7857C23.6195 29.6793 24.1173 29.8835 24.3861 30.2981L28.3246 36.3734C28.5462 36.7154 28.3646 37.1736 27.9691 37.2709L20.1914 39.1809C19.6161 39.3223 19.3376 39.9765 19.6347 40.4892L22.7159 45.806C22.9135 46.147 23.3121 46.3172 23.695 46.2238L32.6529 44.0396C33.0097 43.9526 33.3833 44.0943 33.5927 44.3958L38.7116 51.7633C39.0626 52.2685 38.806 52.9693 38.2116 53.1284L25.7386 56.4662C25.1737 56.6175 24.9064 57.2639 25.1997 57.7698L29.7577 65.6352C29.9647 65.9928 30.3913 66.1604 30.7865 66.0392L51.3124 59.7527C53.8241 58.9836 54.8446 55.9805 53.3217 53.8404L43.2607 39.6993C42.5733 38.7331 41.5487 38.06 40.3888 37.8125L39.4319 37.6083C39.2435 37.568 39.1882 37.3257 39.3408 37.2079C40.1133 36.6111 40.2733 35.5089 39.7023 34.7169L30.9819 22.621C29.2883 20.2717 26.3383 19.1852 23.5254 19.8745L6.9138 23.9455C6.33819 24.0866 6.05949 24.741 6.35663 25.2538Z" fill="#1AE9B7"/>
<path fill-rule="evenodd" clip-rule="evenodd" d="M20.6475 42.2384L22.7154 45.807C22.9129 46.1479 23.3115 46.3179 23.6944 46.2245L32.6524 44.0405C33.0091 43.9533 33.3828 44.095 33.5922 44.3965L38.7111 51.7639C39.0621 52.2694 38.8055 52.97 38.2111 53.129L25.7381 56.4672C25.1732 56.6182 24.9059 57.2648 25.1991 57.7707L29.7572 65.6359C29.9642 65.9934 30.3908 66.1611 30.786 66.0399L51.3119 59.7534C53.8233 58.9843 54.8441 55.9812 53.3212 53.841L43.2602 39.7C42.5728 38.734 41.5481 38.0606 40.3883 37.8131L39.4314 37.6089C39.3393 37.5894 39.2791 37.5215 39.2593 37.4434L20.6475 42.2384Z" fill="url(#paint0_linear_1_16)"/>
<mask id="mask0_1_16" style="mask-type:alpha" maskUnits="userSpaceOnUse" x="20" y="37" width="35" height="30">
<path fill-rule="evenodd" clip-rule="evenodd" d="M20.6465 42.2374L22.7144 45.806C22.912 46.1469 23.3106 46.3169 23.6935 46.2235L32.6514 44.0395C33.0082 43.9523 33.3818 44.094 33.5912 44.3955L38.7101 51.763C39.0612 52.2684 38.8045 52.969 38.2101 53.1281L25.7371 56.4662C25.1722 56.6172 24.9049 57.2638 25.1982 57.7698L29.7562 65.6349C29.9633 65.9925 30.3898 66.1601 30.785 66.0389L51.3109 59.7524C53.8223 58.9833 54.8431 55.9802 53.3202 53.84L43.2592 39.699C42.5718 38.733 41.5472 38.0597 40.3873 37.8121L39.4304 37.6079C39.3383 37.5885 39.2781 37.5205 39.2584 37.4424L20.6465 42.2374Z" fill="#1AE9B7"/>
</mask>
<g mask="url(#mask0_1_16)">
<path d="M20.6478 42.2381L20.4265 41.379L19.2939 41.6709L19.8804 42.6828L20.6478 42.2381ZM22.7157 45.8066L21.9483 46.2514L22.7157 45.8066ZM23.6948 46.2241L23.4847 45.3624L23.6948 46.2241ZM32.6527 44.0401L32.8627 44.9019L32.6527 44.0401ZM33.5926 44.3961L32.8642 44.9024L33.5926 44.3961ZM38.7114 51.7636L37.9828 52.2699L38.7114 51.7636ZM38.2114 53.1287L37.9821 52.2719L38.2114 53.1287ZM25.7385 56.4668L25.5092 55.6098L25.7385 56.4668ZM25.1995 57.7704L25.967 57.3257L25.1995 57.7704ZM29.7575 65.6356L28.99 66.0803L29.7575 65.6356ZM30.7864 66.0396L30.5264 65.1916L30.7864 66.0396ZM51.3122 59.7531L51.572 60.6013L51.3122 59.7531ZM53.3216 53.8407L54.0445 53.3264L53.3216 53.8407ZM43.2605 39.6997L42.5379 40.214L43.2605 39.6997ZM40.3887 37.8128L40.2037 38.6805L40.3887 37.8128ZM39.4317 37.6086L39.6167 36.7412L39.4317 37.6086ZM39.2597 37.443L40.1196 37.2253L39.9009 36.3618L39.0384 36.5842L39.2597 37.443ZM19.8804 42.6828L21.9483 46.2514L23.4832 45.3616L21.4153 41.7934L19.8804 42.6828ZM21.9483 46.2514C22.3431 46.9328 23.1398 47.2724 23.9049 47.0858L23.4847 45.3624C23.4842 45.3624 23.484 45.3624 23.4841 45.3624C23.4842 45.3624 23.4843 45.3624 23.4844 45.3624C23.4845 45.3624 23.4843 45.3624 23.4838 45.3624C23.4834 45.3622 23.4832 45.3619 23.4833 45.3622C23.4834 45.3622 23.4835 45.3622 23.4835 45.3622C23.4836 45.3624 23.4835 45.3622 23.4832 45.3616L21.9483 46.2514ZM23.9049 47.0858L32.8627 44.9019L32.4426 43.1782L23.4847 45.3624L23.9049 47.0858ZM32.8627 44.9019C32.8632 44.9019 32.8632 44.9019 32.8632 44.9019C32.8629 44.9019 32.8632 44.9019 32.8634 44.9019C32.864 44.9021 32.864 44.9021 32.864 44.9021C32.864 44.9019 32.864 44.9021 32.8642 44.9024L34.3212 43.8902C33.9024 43.2874 33.1556 43.0043 32.4426 43.1782L32.8627 44.9019ZM32.8642 44.9024L37.9828 52.2699L39.4398 51.2576L34.3212 43.8902L32.8642 44.9024ZM37.9828 52.2699C37.9839 52.2712 37.9844 52.2722 37.9844 52.2725C37.9847 52.2727 37.9847 52.2724 37.9844 52.2722C37.9841 52.2714 37.9839 52.2701 37.9839 52.2693C37.9836 52.2683 37.9836 52.268 37.9836 52.2686C37.9836 52.2691 37.9834 52.2699 37.9831 52.2709C37.9826 52.2722 37.9823 52.273 37.9821 52.2732C37.9818 52.2737 37.9818 52.2735 37.9826 52.2727C37.9831 52.2722 37.9841 52.2714 37.9849 52.2709C37.9852 52.2709 37.9854 52.2709 37.9849 52.2709C37.9847 52.2709 37.9839 52.2714 37.9821 52.2719L38.4408 53.9855C39.6287 53.6676 40.1414 52.2675 39.4398 51.2576L37.9828 52.2699ZM37.9821 52.2719L25.5092 55.6098L25.9678 57.3236L38.4408 53.9855L37.9821 52.2719ZM25.5092 55.6098C24.3801 55.9121 23.846 57.2037 24.432 58.2152L25.967 57.3257C25.9663 57.3244 25.9659 57.3236 25.9658 57.3234C25.9657 57.3231 25.9658 57.3231 25.9659 57.3236C25.9661 57.3241 25.9662 57.3252 25.9663 57.3259C25.9663 57.3265 25.9662 57.3267 25.9663 57.3265C25.9664 57.3259 25.9665 57.3252 25.9669 57.3244C25.9673 57.3236 25.9676 57.3228 25.9679 57.3226C25.9681 57.3223 25.968 57.3226 25.9675 57.3228C25.9669 57.3234 25.9662 57.3239 25.9655 57.3244C25.9652 57.3244 25.9652 57.3244 25.9654 57.3244C25.9657 57.3244 25.9664 57.3239 25.9678 57.3236L25.5092 55.6098ZM24.432 58.2152L28.99 66.0803L30.5251 65.1908L25.967 57.3257L24.432 58.2152ZM28.99 66.0803C29.4041 66.7949 30.2562 67.1296 31.0461 66.8878L30.5264 65.1916C30.5258 65.1916 30.5256 65.1916 30.5258 65.1916H30.5261C30.5264 65.1916 30.5261 65.1916 30.5256 65.1916C30.5251 65.1914 30.5248 65.1911 30.5251 65.1914H30.5253C30.5253 65.1916 30.5253 65.1914 30.5251 65.1908L28.99 66.0803ZM31.0461 66.8878L51.572 60.6013L51.0525 58.9051L30.5264 65.1916L31.0461 66.8878ZM51.572 60.6013C54.6623 59.655 55.9181 55.9598 54.0445 53.3264L52.599 54.355C53.7707 56.0019 52.9853 58.313 51.0525 58.9051L51.572 60.6013ZM54.0445 53.3264L43.9834 39.1857L42.5379 40.214L52.599 54.355L54.0445 53.3264ZM43.9834 39.1857C43.1671 38.0385 41.9507 37.2391 40.5739 36.9454L40.2037 38.6805C41.1461 38.8816 41.979 39.4288 42.5379 40.214L43.9834 39.1857ZM40.5739 36.9454L39.6167 36.7412L39.2467 38.4763L40.2037 38.6805L40.5739 36.9454ZM39.6167 36.7412C39.8837 36.798 40.0638 37.0053 40.1196 37.2253L38.3998 37.6607C38.495 38.037 38.7958 38.38 39.2467 38.4763L39.6167 36.7412ZM20.8691 43.097L39.481 38.3022L39.0384 36.5842L20.4265 41.379L20.8691 43.097Z" fill="#1AE9B7"/>
</g>
<path d="M79.9725 49.9843L77.0049 45.4625C75.7839 43.6018 73.4855 42.7637 71.3531 43.402L64.5661 45.4332C64.0725 45.5808 63.5404 45.3927 63.2492 44.9679L43.3549 15.9388C43.0742 15.5292 42.5679 15.3381 42.0866 15.4603L32.9755 17.7728C31.8839 18.0498 31.4168 19.3413 32.0785 20.2526L43.8064 36.4019C44.4937 37.3488 45.5072 38.0076 46.6513 38.2517L47.6258 38.4596C47.8176 38.5006 47.8736 38.7471 47.7187 38.8669C46.945 39.4645 46.7735 40.5626 47.3274 41.3677L55.5652 53.3396C57.3138 55.8809 60.5022 57.0039 63.4576 56.1193L79.4847 51.3229C80.0543 51.1525 80.2987 50.4815 79.9725 49.9843Z" fill="white"/>
<path fill-rule="evenodd" clip-rule="evenodd" d="M47.6872 38.8901C46.9397 39.4929 46.7796 40.5725 47.3266 41.367L55.5641 53.3389C57.3127 55.8802 60.5011 57.0032 63.4565 56.1186L79.4836 51.3223C80.0531 51.1518 80.2978 50.4808 79.9717 49.9836L77.0041 45.4618C75.7827 43.6011 73.4843 42.763 71.352 43.4011L64.5649 45.4325C64.0717 45.5801 63.5395 45.392 63.2484 44.9672L56.9686 35.8042L47.6872 38.8901Z" fill="url(#paint1_linear_1_16)"/>
<mask id="mask1_1_16" style="mask-type:alpha" maskUnits="userSpaceOnUse" x="47" y="35" width="34" height="22">
<path fill-rule="evenodd" clip-rule="evenodd" d="M47.6872 38.8901C46.9397 39.4929 46.7796 40.5725 47.3266 41.367L55.5641 53.3389C57.3127 55.8802 60.5011 57.0032 63.4565 56.1186L79.4836 51.3223C80.0531 51.1518 80.2978 50.4808 79.9717 49.9836L77.0041 45.4618C75.7827 43.6011 73.4843 42.763 71.352 43.4011L64.5649 45.4325C64.0717 45.5801 63.5395 45.392 63.2484 44.9672L56.9686 35.8042L47.6872 38.8901Z" fill="white"/>
</mask>
<g mask="url(#mask1_1_16)">
<path d="M47.6868 38.8901L47.407 38.0483L47.2547 38.0989L47.1302 38.1993L47.6868 38.8901ZM47.3261 41.367L46.5952 41.8699L47.3261 41.367ZM55.5636 53.3388L54.8329 53.8414L55.5636 53.3388ZM63.456 56.1186L63.7103 56.9683L63.456 56.1186ZM79.4831 51.3222L79.2288 50.4724L79.4831 51.3222ZM79.9712 49.9836L80.7128 49.4971L79.9712 49.9836ZM77.0036 45.4617L77.7452 44.9752L77.0036 45.4617ZM71.3515 43.401L71.0972 42.5512L71.3515 43.401ZM64.5645 45.4324L64.8187 46.2822L64.5645 45.4324ZM63.2479 44.9672L63.9796 44.4656L63.2479 44.9672ZM56.9681 35.8041L57.6998 35.3026L57.322 34.7515L56.6881 34.9624L56.9681 35.8041ZM47.1302 38.1993C46.022 39.0927 45.7848 40.6924 46.5952 41.8699L48.0568 40.8641C47.7734 40.4523 47.8562 39.8927 48.2436 39.5805L47.1302 38.1993ZM46.5952 41.8699L54.8329 53.8414L56.2943 52.836L48.0568 40.8641L46.5952 41.8699ZM54.8329 53.8414C56.7997 56.7 60.3862 57.9632 63.7103 56.9683L63.2017 55.2688C60.6153 56.0428 57.8249 55.0599 56.2943 52.836L54.8329 53.8414ZM63.7103 56.9683L79.7374 52.172L79.2288 50.4724L63.2017 55.2688L63.7103 56.9683ZM79.7374 52.172C80.8757 51.8313 81.3646 50.4903 80.7128 49.4971L79.2296 50.4703C79.2304 50.4716 79.2307 50.4724 79.2309 50.4727C79.2309 50.4729 79.2309 50.4729 79.2309 50.4724C79.2307 50.4716 79.2304 50.4709 79.2301 50.4701C79.2301 50.4693 79.2301 50.469 79.2301 50.4693C79.2301 50.4698 79.2299 50.4706 79.2296 50.4716C79.2294 50.4724 79.2288 50.4732 79.2286 50.4735C79.2286 50.474 79.2286 50.4737 79.2291 50.4732C79.2296 50.4727 79.2304 50.4719 79.2312 50.4716C79.2314 50.4714 79.2314 50.4714 79.2312 50.4714C79.2309 50.4716 79.2301 50.4719 79.2288 50.4724L79.7374 52.172ZM80.7128 49.4971L77.7452 44.9752L76.262 45.9485L79.2296 50.4703L80.7128 49.4971ZM77.7452 44.9752C76.3087 42.7863 73.6053 41.8008 71.0972 42.5512L71.6058 44.251C73.3624 43.7251 75.2558 44.4155 76.262 45.9485L77.7452 44.9752ZM71.0972 42.5512L64.3102 44.5826L64.8187 46.2822L71.6058 44.251L71.0972 42.5512ZM64.3102 44.5826C64.1861 44.6195 64.0525 44.5723 63.9796 44.4656L62.5162 45.4685C63.0253 46.2114 63.956 46.5404 64.8187 46.2822L64.3102 44.5826ZM63.9796 44.4656L57.6998 35.3026L56.2364 36.3054L62.5162 45.4685L63.9796 44.4656ZM56.6881 34.9624L47.407 38.0483L47.9667 39.7318L57.2481 36.6459L56.6881 34.9624Z" fill="white"/>
</g>
</g>
<defs>
<linearGradient id="paint0_linear_1_16" x1="36.361" y1="37.6932" x2="38.7479" y2="65.3733" gradientUnits="userSpaceOnUse">
<stop stop-color="#1AC19C"/>
<stop offset="1" stop-color="#1AC19C" stop-opacity="0"/>
</linearGradient>
<linearGradient id="paint1_linear_1_16" x1="62.6882" y1="35.3109" x2="64.4879" y2="56.1793" gradientUnits="userSpaceOnUse">
<stop stop-color="#E9E8E8"/>
<stop offset="1" stop-color="#E9E8E8" stop-opacity="0"/>
</linearGradient>
<clipPath id="clip0_1_16">
<rect width="85.3667" height="76.2851" fill="white" transform="translate(0.796875 0.120117)"/>
</clipPath>
</defs>
</svg>
