<svg width="27" height="22" viewBox="0 0 27 22" fill="none" xmlns="http://www.w3.org/2000/svg">
<path d="M24.1772 5.66289C24.1945 5.89622 24.1945 6.12822 24.1945 6.36022C24.1945 13.4602 18.7905 21.6416 8.9145 21.6416C5.87184 21.6416 3.04517 20.7602 0.666504 19.2296C1.0985 19.2789 1.5145 19.2962 1.96384 19.2962C4.38116 19.3021 6.73003 18.4937 8.63184 17.0016C7.51107 16.9813 6.42461 16.6115 5.52415 15.9439C4.6237 15.2762 3.95422 14.3441 3.60917 13.2776C3.94117 13.3269 4.2745 13.3602 4.62384 13.3602C5.10517 13.3602 5.58917 13.2936 6.0385 13.1776C4.82218 12.932 3.72847 12.2727 2.94333 11.3118C2.15819 10.3509 1.73009 9.14775 1.73184 7.90689V7.84022C2.44784 8.23889 3.2785 8.48822 4.1585 8.52155C3.42129 8.03167 2.8168 7.36692 2.39896 6.58661C1.98112 5.8063 1.76292 4.93469 1.76384 4.04955C1.76384 3.05222 2.02917 2.13755 2.4945 1.34022C3.84402 3.00025 5.52717 4.3583 7.43495 5.32643C9.34273 6.29456 11.4326 6.85117 13.5692 6.96022C13.4865 6.56022 13.4358 6.14555 13.4358 5.72955C13.4355 5.02417 13.5742 4.32563 13.8439 3.67387C14.1137 3.02212 14.5093 2.42992 15.0081 1.93114C15.5069 1.43236 16.0991 1.03677 16.7508 0.766991C17.4026 0.497214 18.1011 0.358537 18.8065 0.358887C20.3532 0.358887 21.7492 1.00689 22.7305 2.05489C23.9329 1.82238 25.0859 1.38345 26.1385 0.757554C25.7377 1.99864 24.8982 3.05103 23.7772 3.71755C24.8436 3.59593 25.8857 3.31549 26.8692 2.88555C26.1347 3.95635 25.2245 4.89535 24.1772 5.66289V5.66289Z" fill="#1AE9B7"/>
</svg>
